<svg xmlns="http://www.w3.org/2000/svg" xml:space="preserve" width="100%" height="100%" fill="#FFFFFF" version="1.1" style="shape-rendering:geometricPrecision; text-rendering:geometricPrecision; image-rendering:optimizeQuality; fill-rule:evenodd; clip-rule:evenodd" viewBox="0 0 1095.14 428.8" xmlns:xlink="http://www.w3.org/1999/xlink">
                    <g id="Слой_x0020_1">
                        <metadata id="CorelCorpID_0Corel-Layer"></metadata>
                        <g id="_899053440">
                            <path class="fil0" d="M596.68 114.09l0 43.01c-5.07,-2.1 -10.74,0.1 -17.64,1.9 -31.96,8.33 -7.51,8.06 -39.84,-1.11 -29.8,-8.46 -71.12,-7.69 -96.93,7.05 -11.36,6.49 -22.95,17.97 -29.65,28.99 -10.43,17.15 -6.79,56.4 11.7,71.03 44.79,35.44 100.94,17.45 95.64,40.2 -3.08,13.2 -48.4,8.45 -65.98,0.51 -32.05,-14.46 -48.86,-36.87 -48.86,27.36 0,20.76 15.09,22.3 31.02,27.62 77.68,25.9 146.86,-10.3 146.86,-54.99 0,-28.94 -2.5,-40.44 -25.39,-56.71 -13.45,-9.56 -34.74,-14.58 -52.31,-18.07 -5.99,-1.19 -12.27,-2.45 -19.83,-3.62 -13.79,-2.13 -15.85,-2.65 -15.85,-13.47 17.76,-9.4 35.32,-3.91 58.64,-3.91l68.42 0c0,42.44 -6.45,107.56 16.17,134.35 23.37,27.69 73.61,29.09 99.5,18.45 21.2,-8.71 16.6,-57.02 -0.33,-57.02 -20.54,0 -52.78,22.07 -52.78,-15.64l0 -78.19c25.47,0 54.51,4.31 62.49,-5.93 5.52,-7.09 9.98,-48.8 -11.66,-48.8l-50.82 0 0 -43.01c-16.56,-11.09 -9.27,-7.82 -46.91,-7.82 -8.88,0 -10.2,4.18 -15.64,7.82z"></path>
                            <path class="fil0" d="M794.11 223.55c17.35,-25.91 57.02,-19.59 65.69,-7.05l3.05 9.33c-0.67,0.02 -1.4,-1.39 -1.63,-0.97l-67.11 -1.31zm-68.42 39.1c0,107.45 120.95,125.05 189.62,87.97 13.69,-7.39 12.96,-46.27 4.51,-55.35 -19.93,-21.44 -23.24,16.25 -78.8,16.25 -38.45,0 -42.15,-16.84 -50.82,-33.23l117.4 0.11c21.84,-0.28 21.39,-12.73 21.39,-25.53 0,-33.89 -9.07,-59.61 -26.52,-77.08 -37.21,-37.22 -112.69,-33.55 -149.9,8.17 -8.47,9.5 -15.6,20.65 -19.85,32.93 -4.2,12.12 -7.02,30.3 -7.02,45.76z"></path>
                            <path class="fil0" d="M63.04 266.56c0,-32.64 3.6,-58.64 41.05,-58.64 45.78,0 38.97,74.26 26.32,92.78 -11.44,16.75 -41.08,16.21 -53.61,4.89l-5.21 -6.52c-5.75,-9.31 -8.55,-18.31 -8.55,-32.5zm-62.55 -29.32c0,33.81 -3.88,52.75 10.39,79.53 10.43,19.58 25.38,35.41 45.68,44.24 52.47,22.79 116.08,4.66 139.44,-53.36 10.9,-27.08 10.12,-66.15 -0.27,-93.62 -6.92,-18.28 -11.14,-20.33 -20.41,-32.36 -27.82,-36.08 -105.31,-41.47 -142.12,-5.55 -14.43,14.09 -20.68,24.43 -28.01,42.37 -2.37,5.81 -4.69,11.81 -4.69,18.76z"></path>
                            <path class="fil0" d="M268.28 340.84c0,6.16 -13.54,30.99 -16.94,37.79 -21.28,42.56 -17.89,36.06 -10.43,50.17l52.78 0c10.02,-14.97 9.05,-13.95 15.91,-31.01l65.53 -145.58c5.89,-11.67 38.07,-79.76 35.85,-85.35 -0.14,-0.14 -2.24,-2.19 -2.99,-2.87 -12.52,-11.38 -13.8,-6.9 -53.7,-6.9 -9.6,14.34 -7.12,8.62 -14.37,24.73l-37.91 82.28 -37.01 -84.18c-12.2,-26.06 -2.8,-22.82 -53.41,-22.82 -8.89,0 -17.47,7.47 -16.78,15.01 0.27,2.93 8.39,20.11 10.34,24.66l47.23 107.2c3.93,9.83 15.91,30.96 15.91,36.87z"></path>
                            <path class="fil0" d="M948.53 178.59c0,23.94 -3.48,167.02 3.25,178.54 1.85,3.16 0.79,2.03 3.66,4.16 7.23,5.37 23.97,3 40,3 8.88,0 10.2,-4.17 15.64,-7.82l0 -93.83c0,-5.25 -0.05,-10.48 -0.08,-15.72 -0.05,-7.96 -0.93,-14.81 8.59,-20.74 19.2,-11.96 35.22,-10.92 55.21,-7.57 12.46,2.09 12.35,-0.61 20.34,-4.84l0 -48.87c-17.3,-11.59 -46.13,-9.55 -64.3,-3.7 -7.06,2.27 -13.07,6.06 -19.75,7.61 -4.32,-16.19 -23.69,-11.73 -48.87,-11.73 -9.42,0 -13.68,11.92 -13.68,21.5z"></path>
                            <path class="fil0" d="M59.12 78.9c-28.27,0 -19.18,-28.83 -15.56,-33.16 12.77,-15.26 30.53,3.54 23.05,22.99 -1.12,2.91 -0.02,1.35 -2.75,5.13 -1.6,2.22 -0.02,0.08 -1.81,2.1l-2.93 2.93zm-3.91 -52.78c-7.86,0 -16.47,2.5 -21.08,6.28 -16.55,13.58 -19.02,69.78 28.68,57.92 5.86,-1.46 11.07,0.3 21.73,0.3 0,-21.9 2.34,-71.48 -1.96,-89.92 -4.25,0 -22.05,-7.33 -15.34,25.11 0.85,4.08 0.24,1.97 1.66,4.21l-6.46 -1.36c-3.31,-1.75 -4,-2.55 -7.22,-2.55z"></path>
                            <path class="fil0" d="M1034.54 24.17l-7.82 0 0 58.64c0,7.4 4.56,5.86 15.64,5.86 0,-15.83 -3.76,-52.78 5.86,-52.78 18.22,0 -8.83,52.78 15.64,52.78 17.64,0 -7.89,-50.82 15.64,-52.78 3.82,16.41 1.96,35.71 1.96,52.78l13.68 0 0 -58.64c-23.71,-15.87 -17.67,-4.11 -29.71,-3.16 -5.1,0.41 -7.47,-4.66 -13.29,-4.66 -6.52,0 -1.55,1.79 -8.44,2.85 -6.2,0.95 -0.19,-0.89 -9.16,-0.89z"></path>
                            <path class="fil0" d="M121.68 39.81l13.68 0c2.31,4.36 3.26,5.88 5.86,9.77l-25.41 0c2.3,-4.36 3.26,-5.88 5.86,-9.77zm-21.5 15.64c0,11.75 -0.78,20.11 7.87,29.27 1.56,1.65 0.64,1.02 3.17,2.69 13.47,8.91 43.85,7.23 45.65,-14.37l-10.22 0.55c-0.37,0.04 -0.96,0.04 -1.33,0.11 -13.37,2.37 3.35,5.2 -23.64,5.2 -4.19,-6.26 -5.86,-6.74 -5.86,-17.59 9.5,4.56 30.02,1.96 43,1.96 -4.55,-54.69 -58.64,-42.74 -58.64,-7.82z"></path>
                            <path class="fil0" d="M968.08 55.44c0,-7.39 4.77,-13.04 7.82,-17.59l15.64 0c7.58,11.32 8.43,27.77 1.95,33.23 -10.47,8.82 -25.41,1.54 -25.41,-15.63zm-15.64 -3.91c0,19.05 8.45,37.14 25.41,37.14 18.97,0 17.3,1.39 28.9,-10.2 26.75,-26.74 -12.39,-75.96 -44.1,-48.01 -3.86,3.41 -10.21,14.42 -10.21,21.07z"></path>
                            <path class="fil0" d="M395.34 57.4c0,-23.34 29.32,-22.66 29.32,-3.91l0 15.64c-11.11,7.44 -1.91,7.82 -21.5,7.82 -3.33,-4.97 -7.82,-11.19 -7.82,-19.55zm-15.64 -3.91c0,12.08 0.35,20.2 9.15,29.95 10.37,11.48 51.94,13.91 53.15,-24.24 0.36,-11.32 -4.22,-20.83 -11.69,-27 -17.42,-14.38 -50.61,-3.84 -50.61,21.29z"></path>
                            <path class="fil0" d="M729.6 35.9c11.96,2.79 10.57,2.15 15.64,11.73l-25.41 0c3.71,-7.01 3.08,-7.24 9.77,-11.73zm-25.41 13.68c0,19.31 -1.19,36.85 26.5,40.04 14.03,1.62 28.79,-5.76 30.18,-18.53 -5.14,0 -10.21,-0.63 -14.67,0.97 -2.74,0.98 -25.72,17.04 -26.38,-12.7l43 0c-0.65,-7.86 -2.77,-17.15 -6.6,-22.72 -17.67,-25.65 -52.04,-8.08 -52.04,12.95z"></path>
                            <path class="fil0" d="M848.84 35.9c6.69,4.48 6.06,4.71 9.77,11.73l-25.41 0c5.07,-9.57 3.68,-8.94 15.64,-11.73zm-31.28 17.59c0,40.09 20.53,35.19 44.96,35.19 4.37,-6.52 10.92,-9.76 11.73,-19.55 -6.97,3.35 -5.95,0.64 -13.11,2.52 -0.93,0.24 -25.39,18.32 -27.94,-12.3l43.01 0c-1.1,-49.58 -58.64,-43.37 -58.64,-5.86z"></path>
                            <path class="fil0" d="M514.58 88.67l0 -62.55 -15.64 0 0 43.01c-6.38,4.28 -5.52,7.82 -13.68,7.82 -16.75,0 -11.73,-11.86 -11.73,-50.82l-15.64 0c0,46.86 -6.91,64.51 27.37,64.51 7.02,0 7.26,-2.22 11.78,-3.96 5.86,-2.26 -5.88,2.01 17.54,2.01z"></path>
                            <path class="fil0" d="M532.17 45.67c0,9.72 9.2,13.73 17.51,15.72 3.32,0.79 9.71,1.49 13.06,2.57 6.7,2.16 6.39,3.18 6.56,11.03 -9.84,2.29 -11.71,6.18 -21.16,-0.28l-4.76 -3.12c-3.41,-1.09 -9.41,-0.51 -13.18,-0.51 1.21,14.48 11.64,19.55 27.37,19.55 19.66,0 16.81,-4.66 27.37,-11.73 0,-13.71 1.76,-21.71 -14.85,-26.2 -11.79,-3.19 -16.46,-0.28 -22.29,-8.99 8.98,-13.41 21.53,-1.37 22.5,-1 4.17,1.62 7.87,1 12.69,1 -2.32,-27.83 -50.82,-25.84 -50.82,1.96z"></path>
                            <path class="fil0" d="M657.27 14.4c0,7.36 1.29,3.7 1.96,11.73l-13.68 0 0 13.68 13.68 0c0,23.61 -6.1,50.82 19.55,50.82 8.68,0 7.66,-1.96 17.59,-1.96l1.95 -17.59c-15.65,7.51 -15.65,4.56 -23.46,3.91 0,-13.87 0.69,-23.85 -1.95,-35.19l23.46 0 0 -13.68 -23.46 0c0,-14.78 1.24,-10.94 1.95,-19.55 -4.47,2.15 -17.59,3.22 -17.59,7.82z"></path>
                            <path class="fil0" d="M911.39 88.67c11.23,0 29.12,2.39 31.28,-23.46l-15.64 0c-4.85,9.17 -2.56,6.88 -11.73,11.73 -0.35,-0.3 -0.94,-1.19 -1.1,-0.85 0,0 -8.67,-4.6 -8.67,-14.79 0,-15.69 -1.11,-13.04 5.86,-23.46 13.53,0 8.76,1.34 15.28,4.26 5.58,2.49 6.78,1.6 14.04,1.6 -2.32,-27.92 -37.12,-24.1 -46.97,-7.87 -10.62,17.5 -4.1,52.83 17.65,52.83z"></path>
                            <path class="fil0" d="M262.42 55.44c0,45.39 41.65,39.09 48.92,27.42 2.53,-4.05 5.3,-9.57 5.81,-15.69 -6.19,2.97 -8.9,1.96 -17.59,1.96 -1.72,6.42 -2.84,6.44 -7.82,9.77 -4.03,-2.13 -4.63,-2.71 -9.78,-3.91 -1.54,-6.61 -3.88,-13.57 -2.96,-20.46 3.53,-26.32 21.37,-9.84 23.04,-9.39 7.47,2.02 7.51,-1.15 15.1,2.49 -8.48,-36.42 -54.73,-23.19 -54.73,7.82z"></path>
                            <path class="fil0" d="M774.56 65.22c0,26.22 23.08,23.46 39.1,23.46l0 -13.68 -21.5 -1.96c-0.51,-6.11 -1.95,-6.94 -1.95,-13.68l0 -58.64 -15.64 0 0 64.51z"></path>
                            <path class="fil0" d="M174.46 69.13c0,5.93 3.89,13.22 7.37,16.09 7.92,6.53 21.4,5.41 31.72,5.41l0 -7.82c0,-14.45 -23.46,4.96 -23.46,-17.59l0 -64.51 -15.64 0 0 68.42z"></path>
                            <path class="fil0" d="M207.69 41.76l19.55 0c0,55.25 -4.49,48.87 15.64,48.87l0 -54.73c0,-9.21 11.05,-7.82 -35.19,-7.82l0 13.68z"></path>
                            <polygon class="fil0" points="326.93,41.76 346.42,39.45 346.47,90.63 360.16,90.63 360.16,26.12 326.93,26.12 "></polygon>
                            <path class="fil0" d="M223.32 6.58c0,13.76 -1.7,11.73 21.5,11.73l0 -17.59c-15.37,0 -21.5,-2.11 -21.5,5.86z"></path>
                            <polygon class="fil0" points="342.56,18.3 362.11,18.3 362.11,0.71 342.56,0.71 "></polygon>
                        </g>
                    </g>
                </svg>